# xmcd
#
# Track frame offsets: 
#        150
#        13287
#        37111
#        53382
#        65241
#        77140
#        90481
#        101125
#        114262
#        126728
#        137545
#        155868
#        167938
#        184307
#        194218
#        207074
#
# Disc length: 2948 seconds
#
# Revision: 0
# Processed by: cddbd v1.5.2PL0 Copyright (c) Steve Scherf et al.
# Submitted via: ExactAudioCopyFreeDBPlugin 1.0
#
DISCID=f20b8210
DTITLE=K.W. Tubb - Workin Man's Dirge
DYEAR=1900
DGENRE=Country
TTITLE0=Kenworth Kenny
TTITLE1=Workin Man's Dirge
TTITLE2=Just Say I Luv U
TTITLE3=Bocifus
TTITLE4=Lord I'll Be Livin With You
TTITLE5=Let The Savoir Guide Your Way
TTITLE6=Down Among The Pines
TTITLE7=Tyrone
TTITLE8=Playin For The Money
TTITLE9=Old Guitar
TTITLE10=Sweet Melody
TTITLE11=Waggin My Jaw
TTITLE12=Hard To Swallow
TTITLE13=Untitled
TTITLE14=Untitled
TTITLE15=Untitled
EXTD=
EXTT0=
EXTT1=
EXTT2=
EXTT3=
EXTT4=
EXTT5=
EXTT6=
EXTT7=
EXTT8=
EXTT9=
EXTT10=
EXTT11=
EXTT12=
EXTT13=
EXTT14=
EXTT15=
PLAYORDER=
